<svg width="24" height="24" viewBox="0 0 24 24" fill="none" xmlns="http://www.w3.org/2000/svg">
<rect x="2" y="4" width="20" height="16" rx="3" stroke="black" stroke-width="2"/>
<path d="M7.30787 9.08021V14.9198H6V9.08021H7.30787Z" fill="black"/>
<path d="M11.2 13.3837C11.2 13.2794 11.1895 13.1845 11.1685 13.0989C11.1476 13.0134 11.1026 12.9345 11.0337 12.8623C10.9678 12.7901 10.8704 12.7179 10.7416 12.6457C10.6157 12.5735 10.4509 12.4987 10.2472 12.4211C10.0045 12.3302 9.76929 12.234 9.54157 12.1324C9.31386 12.0281 9.10861 11.9078 8.92584 11.7714C8.74307 11.635 8.59775 11.4746 8.48989 11.2901C8.38502 11.1029 8.33258 10.8837 8.33258 10.6324C8.33258 10.3864 8.38202 10.1631 8.4809 9.96257C8.58277 9.76203 8.72659 9.59091 8.91236 9.4492C9.09813 9.30481 9.31536 9.19385 9.56404 9.11631C9.81573 9.03877 10.0959 9 10.4045 9C10.824 9 11.1865 9.07754 11.4921 9.23262C11.8007 9.3877 12.039 9.60027 12.2067 9.87032C12.3775 10.1404 12.4629 10.4505 12.4629 10.8008H11.1506C11.1506 10.635 11.1236 10.4893 11.0697 10.3636C11.0187 10.2353 10.9363 10.135 10.8225 10.0628C10.7086 9.99064 10.5618 9.95455 10.382 9.95455C10.2142 9.95455 10.0749 9.98529 9.96404 10.0468C9.85618 10.1056 9.77528 10.1872 9.72135 10.2914C9.67041 10.393 9.64494 10.508 9.64494 10.6364C9.64494 10.7326 9.67041 10.8195 9.72135 10.8971C9.77528 10.9719 9.84869 11.0401 9.94157 11.1016C10.0345 11.1604 10.1438 11.2179 10.2697 11.2741C10.3985 11.3302 10.5393 11.385 10.6921 11.4385C10.9888 11.5428 11.2509 11.6578 11.4787 11.7834C11.7064 11.9064 11.8966 12.0455 12.0494 12.2005C12.2022 12.3529 12.3176 12.5254 12.3955 12.7179C12.4734 12.9104 12.5124 13.1297 12.5124 13.3757C12.5124 13.619 12.4644 13.8409 12.3685 14.0414C12.2757 14.2393 12.1393 14.4104 11.9596 14.5548C11.7798 14.6965 11.5625 14.8061 11.3079 14.8837C11.0562 14.9612 10.7745 15 10.4629 15C10.1603 15 9.87416 14.9626 9.60449 14.8877C9.33483 14.8102 9.09663 14.6939 8.88989 14.5388C8.68614 14.381 8.52584 14.1818 8.40899 13.9412C8.29213 13.6979 8.23371 13.4104 8.23371 13.0789H9.55056C9.55056 13.2553 9.57004 13.4064 9.60899 13.5321C9.64794 13.6551 9.70787 13.754 9.78876 13.8289C9.86966 13.9011 9.96854 13.9559 10.0854 13.9933C10.2052 14.0281 10.3416 14.0455 10.4944 14.0455C10.6682 14.0455 10.806 14.016 10.9079 13.9572C11.0127 13.8984 11.0876 13.8195 11.1326 13.7206C11.1775 13.6217 11.2 13.5094 11.2 13.3837Z" fill="black"/>
<path d="M18 11.5468V12.5214C18 12.9332 17.9431 13.2941 17.8292 13.6043C17.7184 13.9118 17.5596 14.1698 17.3528 14.3783C17.1491 14.5842 16.9019 14.7393 16.6112 14.8436C16.3236 14.9479 16.0045 15 15.6539 15C15.3034 15 14.9828 14.9479 14.6921 14.8436C14.4045 14.7393 14.1558 14.5842 13.9461 14.3783C13.7393 14.1698 13.579 13.9118 13.4652 13.6043C13.3513 13.2941 13.2944 12.9332 13.2944 12.5214V11.5468C13.2944 11.1243 13.3498 10.7553 13.4607 10.4398C13.5715 10.1217 13.7318 9.85695 13.9416 9.64572C14.1513 9.43182 14.4 9.27139 14.6876 9.16444C14.9753 9.05481 15.2944 9 15.6449 9C15.9955 9 16.3146 9.05481 16.6022 9.16444C16.8899 9.27139 17.1386 9.43182 17.3483 9.64572C17.5581 9.85695 17.7184 10.1217 17.8292 10.4398C17.9431 10.7553 18 11.1243 18 11.5468ZM16.6921 12.5214V11.5388C16.6921 11.2607 16.6697 11.0241 16.6247 10.8289C16.5798 10.631 16.5124 10.4693 16.4225 10.3436C16.3326 10.2179 16.2232 10.1257 16.0944 10.0668C15.9655 10.008 15.8157 9.97861 15.6449 9.97861C15.4742 9.97861 15.3228 10.008 15.191 10.0668C15.0622 10.1257 14.9528 10.2179 14.8629 10.3436C14.776 10.4693 14.7101 10.631 14.6652 10.8289C14.6232 11.0241 14.6022 11.2607 14.6022 11.5388V12.5214C14.6022 12.7888 14.6247 13.0174 14.6697 13.2072C14.7146 13.3971 14.782 13.5521 14.8719 13.6725C14.9618 13.7928 15.0712 13.8824 15.2 13.9412C15.3318 13.9973 15.4831 14.0254 15.6539 14.0254C15.8217 14.0254 15.97 13.9973 16.0989 13.9412C16.2307 13.8824 16.3401 13.7928 16.427 13.6725C16.5139 13.5521 16.5798 13.3971 16.6247 13.2072C16.6697 13.0174 16.6921 12.7888 16.6921 12.5214Z" fill="black"/>
</svg>
