<svg width="24" height="24" viewBox="0 0 24 24" fill="none" xmlns="http://www.w3.org/2000/svg">
<path d="M5 4.53518V7.29289C5 7.74565 5.17986 8.17986 5.5 8.5C5.82014 8.82014 6 9.25435 6 9.70711V16.882C6 17.5672 6.38713 18.1936 7 18.5L7.31672 18.6584C7.73548 18.8677 8 19.2957 8 19.7639C8 20.4466 8.55341 21 9.23607 21H14.7639C15.4466 21 16 20.4466 16 19.7639C16 19.2957 16.2645 18.8677 16.6833 18.6584L17 18.5C17.6129 18.1936 18 17.5672 18 16.882V9.70711C18 9.25435 18.1799 8.82014 18.5 8.5C18.8201 8.17986 19 7.74565 19 7.29289V4.53518C19 3.68733 18.3127 3 17.4648 3C17.1617 3 16.8654 3.08971 16.6132 3.25783L16.3368 3.44211C15.7979 3.80137 15.1455 3.94936 14.5044 3.85777L13.4142 3.70203C12.4762 3.56802 11.5238 3.56802 10.5858 3.70203L9.49564 3.85777C8.85448 3.94936 8.20206 3.80137 7.66317 3.44211L7.38675 3.25783C7.13457 3.08971 6.83827 3 6.53518 3C5.68733 3 5 3.68733 5 4.53518Z" stroke="black" stroke-width="2"/>
<path d="M6 12H17.5M6 11H18" stroke="black"/>
<rect x="8" y="14" width="2" height="2" rx="0.5" fill="black"/>
<rect x="11" y="14" width="5" height="2" rx="0.5" fill="black"/>
</svg>
