<svg width="778" height="73" viewBox="0 0 778 73" fill="none" xmlns="http://www.w3.org/2000/svg">
<path d="M33.9 72.1C36.7 72.1 39.55 71.7333 42.45 71C45.35 70.2667 48.1 69.2 50.7 67.8C53.3 66.4 55.6333 64.6833 57.7 62.65C59.7667 60.6167 61.3667 58.2667 62.5 55.6L53.2 50.3C52.2667 52.3667 51.0833 54.1333 49.65 55.6C48.2167 57.0667 46.65 58.2833 44.95 59.25C43.25 60.2167 41.4833 60.9167 39.65 61.35C37.8167 61.7833 36.0333 62 34.3 62C30.9667 62 27.9 61.2833 25.1 59.85C22.3 58.4167 19.8833 56.5 17.85 54.1C15.8167 51.7 14.2333 48.9333 13.1 45.8C11.9667 42.6667 11.4 39.3667 11.4 35.9C11.4 32.8333 11.8833 29.7667 12.85 26.7C13.8167 23.6333 15.25 20.8667 17.15 18.4C19.05 15.9333 21.4 13.95 24.2 12.45C27 10.95 30.2667 10.2 34 10.2C35.6667 10.2 37.4 10.3833 39.2 10.75C41 11.1167 42.7333 11.7333 44.4 12.6C46.0667 13.4667 47.6 14.6333 49 16.1C50.4 17.5667 51.6 19.3667 52.6 21.5L61.4 15.6C59.0667 11 55.6 7.26667 51 4.4C46.4 1.53333 40.8667 0.0999985 34.4 0.0999985C29 0.0999985 24.1667 1.13333 19.9 3.2C15.6333 5.26666 12.0167 7.98333 9.04999 11.35C6.08332 14.7167 3.83332 18.5167 2.29999 22.75C0.766655 26.9833 0 31.2333 0 35.5C0 40.0333 0.833333 44.4833 2.5 48.85C4.16667 53.2167 6.5 57.1167 9.5 60.55C12.5 63.9833 16.0667 66.7667 20.2 68.9C24.3333 71.0333 28.9 72.1 33.9 72.1ZM93.7774 71.5V40.2H129.577V71.5H140.877V0.5H129.577V30.2H93.7774V0.5H82.5774V71.5H93.7774ZM171.155 71.5L178.555 52.2H205.955L213.455 71.5H225.255L197.255 0.5H187.455L159.255 71.5H171.155ZM203.755 43.9H180.555L192.355 13.4L203.755 43.9ZM254.932 71.5V46.8H271.332L286.732 71.5H299.432L282.732 44.5C284.799 43.8333 286.699 42.8167 288.432 41.45C290.166 40.0833 291.632 38.4667 292.832 36.6C294.032 34.7333 294.966 32.7 295.632 30.5C296.299 28.3 296.632 26 296.632 23.6C296.632 20.7333 296.082 17.9167 294.982 15.15C293.882 12.3833 292.366 9.91667 290.432 7.75C288.499 5.58333 286.182 3.83333 283.482 2.5C280.782 1.16667 277.832 0.5 274.632 0.5H243.732V71.5H254.932ZM274.532 36.9H254.932V10.4H273.932C275.399 10.4 276.816 10.75 278.182 11.45C279.549 12.15 280.749 13.1 281.782 14.3C282.816 15.5 283.649 16.9 284.282 18.5C284.916 20.1 285.232 21.8 285.232 23.6C285.232 25.4 284.966 27.1 284.432 28.7C283.899 30.3 283.166 31.7167 282.232 32.95C281.299 34.1833 280.182 35.15 278.882 35.85C277.582 36.55 276.132 36.9 274.532 36.9ZM330.71 71.5V46.8H347.11L362.51 71.5H375.21L358.51 44.5C360.576 43.8333 362.476 42.8167 364.21 41.45C365.943 40.0833 367.41 38.4667 368.61 36.6C369.81 34.7333 370.743 32.7 371.41 30.5C372.076 28.3 372.41 26 372.41 23.6C372.41 20.7333 371.86 17.9167 370.76 15.15C369.66 12.3833 368.143 9.91667 366.21 7.75C364.276 5.58333 361.96 3.83333 359.26 2.5C356.56 1.16667 353.61 0.5 350.41 0.5H319.51V71.5H330.71ZM350.31 36.9H330.71V10.4H349.71C351.176 10.4 352.593 10.75 353.96 11.45C355.326 12.15 356.526 13.1 357.56 14.3C358.593 15.5 359.426 16.9 360.06 18.5C360.693 20.1 361.01 21.8 361.01 23.6C361.01 25.4 360.743 27.1 360.21 28.7C359.676 30.3 358.943 31.7167 358.01 32.95C357.076 34.1833 355.96 35.15 354.66 35.85C353.36 36.55 351.91 36.9 350.31 36.9ZM424.787 72C429.654 72 434.17 71.0167 438.337 69.05C442.504 67.0833 446.12 64.45 449.187 61.15C452.254 57.85 454.637 54.0333 456.337 49.7C458.037 45.3667 458.887 40.8333 458.887 36.1C458.887 31.6333 458.07 27.25 456.437 22.95C454.804 18.65 452.504 14.8 449.537 11.4C446.57 8 443.004 5.25 438.837 3.15C434.67 1.05 430.054 0 424.987 0C420.054 0 415.504 0.98333 411.337 2.95C407.17 4.91666 403.57 7.56667 400.537 10.9C397.504 14.2333 395.12 18.0667 393.387 22.4C391.654 26.7333 390.787 31.2667 390.787 36C390.787 40.5333 391.604 44.9667 393.237 49.3C394.87 53.6333 397.187 57.4833 400.187 60.85C403.187 64.2167 406.77 66.9167 410.937 68.95C415.104 70.9833 419.72 72 424.787 72ZM424.887 61.9C421.42 61.9 418.287 61.1833 415.487 59.75C412.687 58.3167 410.304 56.4 408.337 54C406.37 51.6 404.854 48.8333 403.787 45.7C402.72 42.5667 402.187 39.3333 402.187 36C402.187 32.8 402.704 29.65 403.737 26.55C404.77 23.45 406.254 20.7 408.187 18.3C410.12 15.9 412.487 13.95 415.287 12.45C418.087 10.95 421.287 10.2 424.887 10.2C428.287 10.2 431.37 10.9167 434.137 12.35C436.904 13.7833 439.27 15.6833 441.237 18.05C443.204 20.4167 444.72 23.15 445.787 26.25C446.854 29.35 447.387 32.6 447.387 36C447.387 39.2 446.887 42.3333 445.887 45.4C444.887 48.4667 443.42 51.2333 441.487 53.7C439.554 56.1667 437.204 58.15 434.437 59.65C431.67 61.15 428.487 61.9 424.887 61.9ZM491.365 71.5V21.5L531.565 71.5H540.865V0.599998H529.565V51.7L488.965 0.5H480.164V71.5H491.365Z" fill="white"/>
<path d="M591.976 71.5C597.083 71.5 601.709 70.65 605.853 68.95C609.998 67.25 613.53 64.85 616.448 61.75C619.366 58.65 621.604 54.9167 623.162 50.55C624.721 46.1833 625.5 41.3 625.5 35.9C625.5 31.0333 624.804 26.45 623.411 22.15C622.018 17.85 619.929 14.1 617.144 10.9C614.359 7.7 610.86 5.16667 606.649 3.3C602.438 1.43333 597.547 0.5 591.976 0.5H568.5V71.5H591.976ZM591.976 66.9H573.573V5.1H591.976C596.552 5.1 600.598 5.86667 604.113 7.4C607.627 8.93333 610.595 11.0667 613.016 13.8C615.436 16.5333 617.277 19.7833 618.537 23.55C619.797 27.3167 620.427 31.4333 620.427 35.9C620.427 40.3 619.813 44.3833 618.586 48.15C617.36 51.9167 615.552 55.2 613.165 58C610.777 60.8 607.81 62.9833 604.262 64.55C600.714 66.1167 596.619 66.9 591.976 66.9Z" fill="white"/>
<path d="M690.439 32.5V36.9571H654.568V66.8403H696.5V71.5H649.5V32.5H690.439ZM695.5 0.5V5.5H649.5V0.5H695.5Z" fill="white"/>
<path d="M747.407 71.5L777.5 0.5H772.083L745 65.1L717.917 0.5H712.5L742.693 71.5H747.407Z" fill="white"/>
</svg>
