<?xml version="1.0" encoding="UTF-8"?>
<svg width="1057px" height="216px" viewBox="0 0 1057 216" version="1.1" xmlns="http://www.w3.org/2000/svg" xmlns:xlink="http://www.w3.org/1999/xlink">
    <title>Charrondev Logo Light</title>
    <defs>
        <path d="M108,21 C59.9512268,21 21,59.9512268 21,108 C21,156.048773 59.9512268,195 108,195 C156.048773,195 195,156.048773 195,108 C195,59.9512268 156.048773,21 108,21 Z M108,63 C132.852814,63 153,83.1471863 153,108 C153,132.852814 132.852814,153 108,153 C83.1471863,153 63,132.852814 63,108 C63,83.1471863 83.1471863,63 108,63 Z" id="path-1"></path>
        <filter x="-2.3%" y="-2.3%" width="104.6%" height="104.6%" filterUnits="objectBoundingBox" id="filter-2">
            <feMorphology radius="2" operator="erode" in="SourceAlpha" result="shadowSpreadInner1"></feMorphology>
            <feGaussianBlur stdDeviation="3" in="shadowSpreadInner1" result="shadowBlurInner1"></feGaussianBlur>
            <feOffset dx="0" dy="0" in="shadowBlurInner1" result="shadowOffsetInner1"></feOffset>
            <feComposite in="shadowOffsetInner1" in2="SourceAlpha" operator="arithmetic" k2="-1" k3="1" result="shadowInnerInner1"></feComposite>
            <feColorMatrix values="0 0 0 0 0   0 0 0 0 0   0 0 0 0 0  0 0 0 0.8 0" type="matrix" in="shadowInnerInner1"></feColorMatrix>
        </filter>
        <path d="M108,42 C71.5492065,42 42,71.5492065 42,108 C42,144.450793 71.5492065,174 108,174 C144.450793,174 174,144.450793 174,108 C174,71.5492065 144.450793,42 108,42 Z M108,63 C132.852814,63 153,83.1471863 153,108 C153,132.852814 132.852814,153 108,153 C83.1471863,153 63,132.852814 63,108 C63,83.1471863 83.1471863,63 108,63 Z" id="path-3"></path>
        <filter x="-3.0%" y="-3.0%" width="106.1%" height="106.1%" filterUnits="objectBoundingBox" id="filter-4">
            <feGaussianBlur stdDeviation="4" in="SourceAlpha" result="shadowBlurInner1"></feGaussianBlur>
            <feOffset dx="0" dy="0" in="shadowBlurInner1" result="shadowOffsetInner1"></feOffset>
            <feComposite in="shadowOffsetInner1" in2="SourceAlpha" operator="arithmetic" k2="-1" k3="1" result="shadowInnerInner1"></feComposite>
            <feColorMatrix values="0 0 0 0 0   0 0 0 0 0   0 0 0 0 0  0 0 0 0.8 0" type="matrix" in="shadowInnerInner1"></feColorMatrix>
        </filter>
    </defs>
    <g id="Charrondev-Logo-Light" stroke="none" stroke-width="1" fill="none" fill-rule="evenodd">
        <g id="Oval" fill-rule="nonzero">
            <path d="M108,0 C48.353247,0 0,48.353247 0,108 C0,167.646753 48.353247,216 108,216 C167.646753,216 216,167.646753 216,108 C216,48.353247 167.646753,0 108,0 Z M108,63 C132.852814,63 153,83.1471863 153,108 C153,132.852814 132.852814,153 108,153 C83.1471863,153 63,132.852814 63,108 C63,83.1471863 83.1471863,63 108,63 Z" id="BG" fill="#FFFFFF"></path>
            <g opacity="0.194591704">
                <use fill="#000000" xlink:href="#path-1"></use>
                <use fill="black" fill-opacity="1" filter="url(#filter-2)" xlink:href="#path-1"></use>
            </g>
            <g opacity="0.194591704">
                <use fill="#000000" xlink:href="#path-3"></use>
                <use fill="black" fill-opacity="1" filter="url(#filter-4)" xlink:href="#path-3"></use>
            </g>
        </g>
        <path d="M313.4,144.6 C316.2,144.6 319.05,144.233333 321.95,143.5 C324.85,142.766667 327.6,141.7 330.2,140.3 C332.8,138.9 335.133333,137.183333 337.2,135.15 C339.266667,133.116667 340.866667,130.766667 342,128.1 L342,128.1 L332.7,122.8 C331.766667,124.866667 330.583333,126.633333 329.15,128.1 C327.716667,129.566667 326.15,130.783333 324.45,131.75 C322.75,132.716667 320.983333,133.416667 319.15,133.85 C317.316667,134.283333 315.533333,134.5 313.8,134.5 C310.466667,134.5 307.4,133.783333 304.6,132.35 C301.8,130.916667 299.383333,129 297.35,126.6 C295.316667,124.2 293.733333,121.433333 292.6,118.3 C291.466667,115.166667 290.9,111.866667 290.9,108.4 C290.9,105.333333 291.383333,102.266667 292.35,99.2 C293.316667,96.1333333 294.75,93.3666667 296.65,90.9 C298.55,88.4333333 300.9,86.45 303.7,84.95 C306.5,83.45 309.766667,82.7 313.5,82.7 C315.166667,82.7 316.9,82.8833333 318.7,83.25 C320.5,83.6166667 322.233333,84.2333333 323.9,85.1 C325.566667,85.9666667 327.1,87.1333333 328.5,88.6 C329.9,90.0666667 331.1,91.8666667 332.1,94 L332.1,94 L340.9,88.1 C338.566667,83.5 335.1,79.7666667 330.5,76.9 C325.9,74.0333333 320.366667,72.6 313.9,72.6 C308.5,72.6 303.666667,73.6333333 299.4,75.7 C295.133333,77.7666667 291.516667,80.4833333 288.55,83.85 C285.583333,87.2166667 283.333333,91.0166667 281.8,95.25 C280.266667,99.4833333 279.5,103.733333 279.5,108 C279.5,112.533333 280.333333,116.983333 282,121.35 C283.666667,125.716667 286,129.616667 289,133.05 C292,136.483333 295.566667,139.266667 299.7,141.4 C303.833333,143.533333 308.4,144.6 313.4,144.6 Z M373.277419,144 L373.277419,112.7 L409.077419,112.7 L409.077419,144 L420.377419,144 L420.377419,73 L409.077419,73 L409.077419,102.7 L373.277419,102.7 L373.277419,73 L362.077419,73 L362.077419,144 L373.277419,144 Z M450.654839,144 L458.054839,124.7 L485.454839,124.7 L492.954839,144 L504.754839,144 L476.754839,73 L466.954839,73 L438.754839,144 L450.654839,144 Z M483.254839,116.4 L460.054839,116.4 L471.854839,85.9 L483.254839,116.4 Z M534.432258,144 L534.432258,119.3 L550.832258,119.3 L566.232258,144 L578.932258,144 L562.232258,117 C564.298925,116.333333 566.198925,115.316667 567.932258,113.95 C569.665591,112.583333 571.132258,110.966667 572.332258,109.1 C573.532258,107.233333 574.465591,105.2 575.132258,103 C575.798925,100.8 576.132258,98.5 576.132258,96.1 C576.132258,93.2333333 575.582258,90.4166667 574.482258,87.65 C573.382258,84.8833333 571.865591,82.4166667 569.932258,80.25 C567.998925,78.0833333 565.682258,76.3333333 562.982258,75 C560.282258,73.6666667 557.332258,73 554.132258,73 L554.132258,73 L523.232258,73 L523.232258,144 L534.432258,144 Z M554.032258,109.4 L534.432258,109.4 L534.432258,82.9 L553.432258,82.9 C554.898925,82.9 556.315591,83.25 557.682258,83.95 C559.048925,84.65 560.248925,85.6 561.282258,86.8 C562.315591,88 563.148925,89.4 563.782258,91 C564.415591,92.6 564.732258,94.3 564.732258,96.1 C564.732258,97.9 564.465591,99.6 563.932258,101.2 C563.398925,102.8 562.665591,104.216667 561.732258,105.45 C560.798925,106.683333 559.682258,107.65 558.382258,108.35 C557.082258,109.05 555.632258,109.4 554.032258,109.4 L554.032258,109.4 Z M610.209677,144 L610.209677,119.3 L626.609677,119.3 L642.009677,144 L654.709677,144 L638.009677,117 C640.076344,116.333333 641.976344,115.316667 643.709677,113.95 C645.443011,112.583333 646.909677,110.966667 648.109677,109.1 C649.309677,107.233333 650.243011,105.2 650.909677,103 C651.576344,100.8 651.909677,98.5 651.909677,96.1 C651.909677,93.2333333 651.359677,90.4166667 650.259677,87.65 C649.159677,84.8833333 647.643011,82.4166667 645.709677,80.25 C643.776344,78.0833333 641.459677,76.3333333 638.759677,75 C636.059677,73.6666667 633.109677,73 629.909677,73 L629.909677,73 L599.009677,73 L599.009677,144 L610.209677,144 Z M629.809677,109.4 L610.209677,109.4 L610.209677,82.9 L629.209677,82.9 C630.676344,82.9 632.093011,83.25 633.459677,83.95 C634.826344,84.65 636.026344,85.6 637.059677,86.8 C638.093011,88 638.926344,89.4 639.559677,91 C640.193011,92.6 640.509677,94.3 640.509677,96.1 C640.509677,97.9 640.243011,99.6 639.709677,101.2 C639.176344,102.8 638.443011,104.216667 637.509677,105.45 C636.576344,106.683333 635.459677,107.65 634.159677,108.35 C632.859677,109.05 631.409677,109.4 629.809677,109.4 L629.809677,109.4 Z M704.287097,144.5 C709.153763,144.5 713.67043,143.516667 717.837097,141.55 C722.003763,139.583333 725.62043,136.95 728.687097,133.65 C731.753763,130.35 734.137097,126.533333 735.837097,122.2 C737.537097,117.866667 738.387097,113.333333 738.387097,108.6 C738.387097,104.133333 737.57043,99.75 735.937097,95.45 C734.303763,91.15 732.003763,87.3 729.037097,83.9 C726.07043,80.5 722.503763,77.75 718.337097,75.65 C714.17043,73.55 709.553763,72.5 704.487097,72.5 C699.553763,72.5 695.003763,73.4833333 690.837097,75.45 C686.67043,77.4166667 683.07043,80.0666667 680.037097,83.4 C677.003763,86.7333333 674.62043,90.5666667 672.887097,94.9 C671.153763,99.2333333 670.287097,103.766667 670.287097,108.5 C670.287097,113.033333 671.103763,117.466667 672.737097,121.8 C674.37043,126.133333 676.687097,129.983333 679.687097,133.35 C682.687097,136.716667 686.27043,139.416667 690.437097,141.45 C694.603763,143.483333 699.22043,144.5 704.287097,144.5 Z M704.387097,134.4 C700.92043,134.4 697.787097,133.683333 694.987097,132.25 C692.187097,130.816667 689.803763,128.9 687.837097,126.5 C685.87043,124.1 684.353763,121.333333 683.287097,118.2 C682.22043,115.066667 681.687097,111.833333 681.687097,108.5 C681.687097,105.3 682.203763,102.15 683.237097,99.05 C684.27043,95.95 685.753763,93.2 687.687097,90.8 C689.62043,88.4 691.987097,86.45 694.787097,84.95 C697.587097,83.45 700.787097,82.7 704.387097,82.7 C707.787097,82.7 710.87043,83.4166667 713.637097,84.85 C716.403763,86.2833333 718.77043,88.1833333 720.737097,90.55 C722.703763,92.9166667 724.22043,95.65 725.287097,98.75 C726.353763,101.85 726.887097,105.1 726.887097,108.5 C726.887097,111.7 726.387097,114.833333 725.387097,117.9 C724.387097,120.966667 722.92043,123.733333 720.987097,126.2 C719.053763,128.666667 716.703763,130.65 713.937097,132.15 C711.17043,133.65 707.987097,134.4 704.387097,134.4 Z M770.864516,144 L770.864516,94 L811.064516,144 L820.364516,144 L820.364516,73.1 L809.064516,73.1 L809.064516,124.2 L768.464516,73 L759.664516,73 L759.664516,144 L770.864516,144 Z" id="CHARRON" fill="#FFFFFF" fill-rule="nonzero"></path>
        <g id="DEV" transform="translate(848.000000, 73.000000)" fill="#FFFFFF" fill-rule="nonzero">
            <path d="M23.4764398,71 C28.582897,71 33.2085515,70.15 37.3534031,68.45 C41.4982548,66.75 45.0296684,64.35 47.947644,61.25 C50.8656195,58.15 53.1038394,54.4166667 54.6623037,50.05 C56.2207679,45.6833333 57,40.8 57,35.4 C57,30.5333333 56.3036649,25.95 54.9109948,21.65 C53.5183246,17.35 51.4293194,13.6 48.6439791,10.4 C45.8586387,7.2 42.3603839,4.66666667 38.1492147,2.8 C33.9380454,0.933333333 29.0471204,0 23.4764398,0 L23.4764398,0 L0,0 L0,71 L23.4764398,71 Z M23.4764398,66.4 L5.07329843,66.4 L5.07329843,4.6 L23.4764398,4.6 C28.052356,4.6 32.0977312,5.36666667 35.6125654,6.9 C39.1273997,8.43333333 42.0951134,10.5666667 44.5157068,13.3 C46.9363002,16.0333333 48.7766143,19.2833333 50.0366492,23.05 C51.2966841,26.8166667 51.9267016,30.9333333 51.9267016,35.4 C51.9267016,39.8 51.3132635,43.8833333 50.0863874,47.65 C48.8595113,51.4166667 47.052356,54.7 44.6649215,57.5 C42.2774869,60.3 39.3097731,62.4833333 35.7617801,64.05 C32.2137871,65.6166667 28.1186736,66.4 23.4764398,66.4 L23.4764398,66.4 Z" id="D"></path>
            <path d="M121.938689,32 L121.938689,36.4571429 L86.0676533,36.4571429 L86.0676533,66.3402597 L128,66.3402597 L128,71 L81,71 L81,32 L121.938689,32 Z M127,0 L127,5 L81,5 L81,0 L127,0 Z" id="E"></path>
            <polygon id="V" points="178.907407 71 209 0 203.583333 0 176.5 64.6 149.416667 0 144 0 174.192901 71"></polygon>
        </g>
    </g>
</svg>